# xmcd
#
# Track frame offsets: 
#        180
#        13166
#        25951
#        39415
#        54517
#        66465
#        79487
#        92882
#        104415
#        119344
#        133064
#        147282
#        160924
#        172734
#        183778
#        194794
#        205315
#        215952
#
# Disc length: 3025 seconds
#
# Revision: 3
# Processed by: cddbd v1.5.2PL0 Copyright (c) Steve Scherf et al.
# Submitted via: ExactAudioCopyFreeDBPlugin 1.0
#
DISCID=130bcf12
DTITLE=Various Artist - Western Swing:  Texas, 1928-1944
DYEAR=1994
DGENRE=Country
TTITLE0=Bob Wills and His Texas Playboys - Who Walks in When I Walk Out
TTITLE1=Emmett Miler and His Georgia Crackers - Lovesick Blues
TTITLE2=Milton Brown and His Musical Brownies - Talking About You
TTITLE3=Milton Brown and His Musical Brownies - I'll Be Glad When You're
TTITLE3=Dead, You Rascal
TTITLE4=Bill Boyd and His Cowboy Ramblers - Boyd's Blues
TTITLE5=The Tune Wranglers - Red's Tight Like That
TTITLE6=The Tune Wranglers - El Rancho Grande
TTITLE7=The Tune Wranglers - Buster's Crawdad Song
TTITLE8=Jimmy Revard and His Oklahoma Playboys - Blues in the Bottle
TTITLE9=Bill Boyd and His Cowboy Ramblers - Show Me the Way to Go Home
TTITLE10=Cliff Bruner's Texas Wanderers - Milk Cow Blues
TTITLE11=Jimmy Revard and His Oklahoma Playboys - Ride'em Cowboy
TTITLE12=Milton Brown and His Musical Brownies - Louise Louise Blues
TTITLE13=The Light Crust Doughboys - Blue Guitars
TTITLE14=The Crystal Spring Ramblers - Fort Worth Stomp
TTITLE15=W. Lee O'Daniel and His Hillbilly Boys - Dirty Hangover Blues
TTITLE16=The Light Crust Doughboys - Just Once Too Often
TTITLE17=The Modern Mountaineers - Everybody's Truckin'
EXTD=
EXTT0=
EXTT1=
EXTT2=
EXTT3=
EXTT4=
EXTT5=
EXTT6=
EXTT7=
EXTT8=
EXTT9=
EXTT10=
EXTT11=
EXTT12=
EXTT13=
EXTT14=
EXTT15=
EXTT16=
EXTT17=
PLAYORDER=
